<?xml version="1.0" standalone="no"?>
<!DOCTYPE svg PUBLIC "-//W3C//DTD SVG 20010904//EN"
 "http://www.w3.org/TR/2001/REC-SVG-20010904/DTD/svg10.dtd">
<svg version="1.0" xmlns="http://www.w3.org/2000/svg"
 width="592.000000pt" height="592.000000pt" viewBox="0 0 592.000000 592.000000"
 preserveAspectRatio="xMidYMid meet">
<metadata>
Created by potrace 1.14, written by Peter Selinger 2001-2017
</metadata>
<g transform="translate(0.000000,592.000000) scale(0.100000,-0.100000)"
fill="#000000" stroke="none">
<path d="M2678 5835 c-1 -2 -30 -6 -63 -9 -33 -3 -74 -8 -90 -10 -17 -3 -50
-7 -75 -10 -93 -12 -308 -60 -382 -85 -29 -10 -57 -19 -63 -21 -25 -7 -45 -13
-110 -37 -38 -14 -84 -31 -102 -39 -17 -8 -36 -14 -42 -14 -22 0 -10 -19 27
-41 20 -13 41 -25 45 -27 5 -3 63 -38 129 -78 66 -41 124 -74 129 -74 5 0 9
-3 9 -8 0 -4 21 -19 48 -32 26 -14 49 -28 50 -32 2 -5 10 -8 17 -8 7 0 15 -3
17 -7 2 -5 55 -39 118 -77 63 -38 133 -81 155 -95 22 -14 42 -26 45 -26 3 0
23 -12 45 -26 69 -45 179 -111 218 -132 20 -11 37 -24 37 -29 0 -4 4 -8 9 -8
9 0 69 -34 167 -95 38 -23 233 -143 272 -166 15 -9 110 -67 212 -129 194 -119
432 -264 478 -291 15 -9 88 -53 162 -99 74 -46 207 -127 295 -180 88 -53 220
-133 293 -178 73 -45 136 -82 141 -82 5 0 11 -3 13 -7 2 -5 17 -16 33 -26 17
-9 83 -50 148 -90 65 -39 125 -77 135 -82 9 -6 71 -43 137 -83 66 -40 129 -79
140 -85 11 -7 35 -22 53 -35 17 -13 32 -20 32 -17 0 4 18 -8 40 -25 22 -17 40
-28 40 -24 0 4 8 0 18 -8 9 -9 40 -30 69 -46 l51 -31 -4 52 c-10 122 -15 166
-35 277 -14 80 -17 99 -34 165 -9 33 -17 69 -19 80 -12 58 -87 279 -116 342
-11 24 -20 45 -20 48 0 3 -28 60 -61 128 -56 112 -81 158 -112 212 -19 33
-150 230 -157 235 -3 3 -30 37 -60 75 -91 118 -252 286 -374 390 -32 28 -63
55 -69 60 -7 6 -39 30 -72 55 -33 25 -61 48 -63 53 -2 4 -10 7 -17 7 -7 0 -15
4 -17 8 -5 14 -220 145 -313 192 -50 25 -93 49 -96 53 -3 5 -8 8 -10 7 -5 -2
-37 11 -104 40 -117 52 -380 137 -479 156 -11 2 -32 6 -46 9 -14 3 -36 8 -50
10 -14 3 -38 8 -55 11 -16 4 -46 8 -65 10 -19 1 -35 3 -35 4 0 2 -36 8 -95 15
-58 7 -516 16 -522 10z"/>
<path d="M1252 5330 c-12 -11 -24 -20 -28 -20 -7 0 -155 -108 -164 -120 -3 -4
-35 -32 -71 -62 -84 -71 -237 -226 -315 -320 -56 -67 -183 -238 -211 -284
-159 -260 -231 -409 -310 -639 -52 -153 -102 -357 -119 -480 -3 -27 -8 -59
-10 -70 -26 -135 -26 -605 0 -755 3 -14 7 -41 10 -60 8 -49 15 -87 27 -150 7
-30 13 -62 14 -70 2 -8 4 -15 5 -15 1 0 3 -9 5 -20 16 -80 100 -333 143 -425
14 -30 26 -60 27 -67 3 -11 93 -185 133 -254 40 -70 47 -83 55 -93 4 -6 37
-54 73 -106 129 -184 248 -320 420 -480 113 -105 343 -281 345 -263 3 29 -1
125 -6 133 -4 6 -2 10 4 10 6 0 7 11 3 28 -4 15 -6 41 -5 57 2 17 3 40 3 53 0
27 0 48 1 65 0 15 0 75 -1 102 -1 11 -1 26 -1 33 1 6 1 18 2 25 0 15 0 75 -1
102 -1 11 -1 26 -1 33 1 6 1 18 2 25 0 15 0 75 -1 102 -1 11 -1 26 -1 33 1 6
1 18 2 25 0 15 0 75 -1 102 -1 11 -1 26 -1 33 1 6 1 18 2 25 0 15 0 75 -1 102
-1 11 -1 26 -1 33 1 6 1 18 2 25 0 15 0 75 -1 102 -1 11 -1 26 -1 33 1 6 1 18
2 25 0 15 0 75 -1 102 -1 11 -1 27 -1 35 3 69 2 121 -4 130 -3 5 -2 10 4 10 6
0 6 11 1 30 -5 17 -5 30 0 30 5 0 5 13 0 30 -5 17 -5 30 0 30 5 0 5 13 0 30
-5 17 -5 30 0 30 5 0 5 13 0 30 -5 17 -5 30 0 30 5 0 5 13 0 30 -5 17 -5 30 0
30 5 0 5 13 0 30 -5 17 -5 30 0 30 5 0 5 13 0 30 -5 17 -5 30 0 30 5 0 5 13 0
30 -5 17 -5 30 0 30 5 0 5 13 0 30 -5 17 -5 30 0 30 5 0 5 13 0 30 -5 17 -5
30 0 30 5 0 5 13 0 30 -5 17 -5 30 0 30 5 0 5 13 0 30 -5 17 -5 30 0 30 5 0 5
13 0 30 -5 17 -5 30 0 30 5 0 5 13 0 30 -5 17 -5 30 0 30 5 0 5 13 0 30 -5 17
-5 30 0 30 5 0 5 13 0 30 -5 17 -5 30 0 30 5 0 5 13 0 30 -5 17 -5 30 0 30 5
0 5 13 0 30 -5 17 -5 30 0 30 5 0 5 13 0 30 -5 17 -5 30 0 30 5 0 5 13 0 30
-5 17 -5 30 0 30 5 0 5 13 0 30 -5 17 -5 30 0 30 5 0 5 13 0 30 -5 17 -5 30 0
30 5 0 5 13 0 30 -5 17 -5 30 0 30 5 0 5 13 0 30 -5 17 -5 30 0 30 5 0 5 13 0
30 -5 17 -5 30 0 30 5 0 5 13 0 30 -5 17 -5 30 0 30 5 0 5 13 0 30 -5 17 -5
30 0 30 5 0 5 13 0 30 -5 17 -5 30 0 30 5 0 5 13 0 30 -5 17 -5 30 0 30 5 0 5
13 0 30 -5 17 -5 30 0 30 5 0 5 13 0 30 -5 17 -5 30 0 30 5 0 5 13 0 30 -5 17
-5 30 0 30 5 0 5 13 0 30 -5 17 -5 30 0 30 5 0 5 13 0 30 -5 17 -5 30 0 30 5
0 5 13 0 30 -5 17 -5 30 0 30 5 0 5 13 0 30 -5 17 -5 30 0 30 5 0 5 13 0 30
-5 17 -5 30 0 30 5 0 5 13 0 30 -5 17 -5 30 0 30 5 0 5 13 0 30 -5 17 -5 30 0
30 5 0 5 13 0 30 -5 17 -5 30 0 30 5 0 5 12 1 28 -7 29 -6 90 3 99 2 3 1 15
-4 27 -4 13 -5 29 0 36 4 7 4 24 0 39 -4 14 -4 35 0 46 4 11 4 29 0 41 -5 11
-5 27 0 34 4 7 4 24 0 39 -4 14 -4 35 0 46 4 11 4 29 0 41 -5 11 -5 26 -1 33
5 7 5 30 1 52 -4 22 -4 42 0 44 4 3 4 21 0 40 -4 19 -5 35 -1 35 7 0 6 98 -1
105 -2 3 -14 -4 -26 -15z"/>
<path d="M5745 2609 c-5 -5 -64 -42 -130 -81 -66 -39 -121 -75 -123 -80 -2 -4
-8 -8 -14 -8 -6 0 -39 -18 -74 -40 -35 -22 -68 -40 -73 -40 -5 0 -11 -4 -13
-8 -2 -6 -313 -198 -383 -236 -11 -6 -22 -13 -25 -16 -4 -5 -178 -112 -265
-163 -11 -7 -31 -19 -45 -28 -14 -9 -41 -26 -60 -36 -46 -27 -346 -209 -390
-239 -19 -12 -47 -28 -62 -35 -16 -7 -28 -16 -28 -21 0 -4 -4 -8 -9 -8 -12 0
-115 -63 -119 -72 -2 -5 -10 -8 -17 -8 -8 0 -20 -6 -27 -12 -13 -12 -24 -19
-80 -51 -13 -6 -25 -14 -28 -17 -3 -3 -57 -36 -120 -74 -63 -38 -184 -111
-267 -162 -84 -52 -155 -94 -158 -94 -3 0 -11 -5 -18 -10 -18 -15 -137 -90
-143 -90 -3 0 -24 -12 -47 -27 -48 -32 -58 -38 -142 -88 -33 -20 -103 -63
-155 -95 -52 -33 -104 -64 -115 -70 -11 -5 -63 -37 -115 -70 -52 -34 -106 -66
-120 -73 -14 -6 -27 -14 -30 -18 -3 -3 -18 -14 -35 -23 -16 -9 -46 -27 -66
-39 -20 -12 -107 -65 -193 -117 -86 -52 -156 -98 -156 -101 0 -8 214 -78 289
-94 9 -2 50 -11 91 -20 41 -9 90 -18 109 -21 18 -3 43 -8 55 -10 11 -3 44 -7
71 -9 28 -3 66 -7 85 -11 55 -10 468 -13 540 -4 36 4 90 11 121 14 31 4 67 9
80 11 13 3 41 7 63 11 22 3 43 7 46 9 3 2 21 6 40 9 57 9 75 14 172 40 81 22
243 74 288 93 8 3 18 5 23 5 4 -1 7 2 7 8 0 5 7 10 15 10 8 0 23 4 33 9 9 5
80 39 157 77 77 37 142 70 145 74 3 3 32 21 65 39 33 19 62 37 65 41 3 4 25
19 50 33 25 14 54 35 65 45 11 10 27 23 36 28 23 13 82 60 168 133 131 111
338 329 401 421 8 12 27 36 42 54 15 17 30 39 34 49 3 9 10 17 15 17 5 0 9 7
9 15 0 8 4 15 9 15 5 0 14 14 21 30 7 17 16 30 21 30 5 0 9 4 9 10 0 5 15 33
34 62 83 131 187 353 251 538 33 96 88 293 100 358 2 15 9 52 15 82 13 66 24
160 19 160 -2 -1 -8 -5 -14 -11z"/>
</g>
</svg>
